<mxfile host="app.diagrams.net" modified="2023-04-16T08:29:10.933Z" agent="Mozilla/5.0 (Windows NT 10.0; Win64; x64) AppleWebKit/537.36 (KHTML, like Gecko) Chrome/111.0.0.0 Safari/537.36" version="21.1.8" etag="mfgMWNacgnaZ4mExrKIn" type="github">
  <diagram name="‫עמוד-1‬" id="_xciK7EtgG_6D2K-rzeW">
    <mxGraphModel>
      <root>
        <mxCell id="0" />
        <mxCell id="1" parent="0" />
      </root>
    </mxGraphModel>
  </diagram>
</mxfile>
